<?xml version="1.0" encoding="UTF-8"?>
<svg xmlns="http://www.w3.org/2000/svg" xmlns:xlink="http://www.w3.org/1999/xlink" width="28px" height="31px" viewBox="0 0 28 32" version="1.1">
<g id="surface1">
<path style=" stroke:none;fill-rule:nonzero;fill:rgb(0%,0%,0%);fill-opacity:1;" d="M 0 6 C 0 4.894531 0.894531 4 2 4 L 26 4 C 27.105469 4 28 4.894531 28 6 C 28 7.105469 27.105469 8 26 8 L 2 8 C 0.894531 8 0 7.105469 0 6 Z M 0 16 C 0 14.894531 0.894531 14 2 14 L 26 14 C 27.105469 14 28 14.894531 28 16 C 28 17.105469 27.105469 18 26 18 L 2 18 C 0.894531 18 0 17.105469 0 16 Z M 26 28 L 2 28 C 0.894531 28 0 27.105469 0 26 C 0 24.894531 0.894531 24 2 24 L 26 24 C 27.105469 24 28 24.894531 28 26 C 28 27.105469 27.105469 28 26 28 Z M 26 28 "/>
</g>
</svg>
