<?xml version="1.0" encoding="UTF-8"?>
<svg xmlns="http://www.w3.org/2000/svg" xmlns:xlink="http://www.w3.org/1999/xlink" width="28px" height="31px" viewBox="0 0 28 28" version="1.1">
<g id="surface1">
<path style=" stroke:none;fill-rule:nonzero;fill:rgb(0%,0%,0%);fill-opacity:1;" d="M 27.121094 9.109375 C 27.300781 9.582031 27.148438 10.113281 26.773438 10.457031 L 24.40625 12.609375 C 24.46875 13.066406 24.5 13.53125 24.5 14 C 24.5 14.46875 24.46875 14.933594 24.40625 15.390625 L 26.773438 17.542969 C 27.148438 17.886719 27.300781 18.417969 27.121094 18.890625 C 26.878906 19.539062 26.589844 20.167969 26.261719 20.765625 L 26.003906 21.207031 C 25.644531 21.808594 25.238281 22.378906 24.796875 22.917969 C 24.46875 23.308594 23.9375 23.445312 23.457031 23.292969 L 20.410156 22.316406 C 19.675781 22.882812 18.816406 23.351562 18.003906 23.710938 L 17.320312 26.835938 C 17.210938 27.328125 16.828125 27.675781 16.324219 27.808594 C 15.570312 27.933594 14.792969 28 13.949219 28 C 13.207031 28 12.429688 27.933594 11.675781 27.808594 C 11.171875 27.675781 10.789062 27.328125 10.679688 26.835938 L 9.996094 23.710938 C 9.132812 23.351562 8.324219 22.882812 7.589844 22.316406 L 4.546875 23.292969 C 4.0625 23.445312 3.53125 23.308594 3.207031 22.917969 C 2.761719 22.378906 2.359375 21.808594 1.996094 21.207031 L 1.742188 20.765625 C 1.410156 20.167969 1.121094 19.539062 0.878906 18.890625 C 0.699219 18.417969 0.851562 17.886719 1.226562 17.542969 L 3.589844 15.390625 C 3.53125 14.933594 3.5 14.46875 3.5 14 C 3.5 13.53125 3.53125 13.066406 3.589844 12.609375 L 1.226562 10.457031 C 0.851562 10.113281 0.699219 9.585938 0.878906 9.109375 C 1.121094 8.460938 1.410156 7.832031 1.742188 7.234375 L 1.996094 6.792969 C 2.359375 6.191406 2.761719 5.621094 3.207031 5.082031 C 3.53125 4.691406 4.0625 4.554688 4.546875 4.710938 L 7.589844 5.683594 C 8.324219 5.117188 9.132812 4.644531 9.996094 4.289062 L 10.679688 1.167969 C 10.789062 0.671875 11.171875 0.277344 11.675781 0.191406 C 12.429688 0.0664062 13.207031 0 14 0 C 14.792969 0 15.570312 0.0664062 16.324219 0.191406 C 16.828125 0.277344 17.210938 0.671875 17.320312 1.167969 L 18.003906 4.289062 C 18.816406 4.644531 19.675781 5.117188 20.410156 5.683594 L 23.457031 4.710938 C 23.9375 4.554688 24.46875 4.691406 24.796875 5.082031 C 25.238281 5.621094 25.644531 6.191406 26.003906 6.792969 L 26.261719 7.234375 C 26.589844 7.832031 26.878906 8.460938 27.121094 9.109375 Z M 14 18.375 C 16.417969 18.375 18.375 16.417969 18.375 13.949219 C 18.375 11.582031 16.417969 9.574219 14 9.574219 C 11.582031 9.574219 9.625 11.582031 9.625 13.949219 C 9.625 16.417969 11.582031 18.375 14 18.375 Z M 14 18.375 "/>
</g>
</svg>
