<?xml version="1.0" encoding="UTF-8"?>
<svg xmlns="http://www.w3.org/2000/svg" xmlns:xlink="http://www.w3.org/1999/xlink" width="28px" height="31px" viewBox="0 0 28 24" version="1.1">
<g id="surface1">
<path style=" stroke:none;fill-rule:nonzero;fill:rgb(0%,0%,0%);fill-opacity:1;" d="M 27.992188 11.976562 C 27.992188 12.820312 27.261719 13.480469 26.433594 13.480469 L 24.878906 13.480469 L 24.914062 20.984375 C 24.914062 21.117188 24.902344 21.238281 24.890625 21.367188 L 24.890625 22.125 C 24.890625 23.160156 24.019531 24 22.945312 24 L 22.167969 24 C 22.113281 24 22.058594 23.957031 22.007812 23.996094 C 21.9375 23.957031 21.871094 24 21.800781 24 L 19.054688 24 C 17.980469 24 17.109375 23.160156 17.109375 22.125 L 17.109375 18 C 17.109375 17.171875 16.414062 16.5 15.554688 16.5 L 12.445312 16.5 C 11.585938 16.5 10.890625 17.171875 10.890625 18 L 10.890625 22.125 C 10.890625 23.160156 10.019531 24 8.945312 24 L 6.226562 24 C 6.152344 24 6.082031 23.996094 6.007812 23.992188 C 5.949219 23.996094 5.890625 24 5.832031 24 L 5.054688 24 C 3.980469 24 3.109375 23.160156 3.109375 22.125 L 3.109375 16.875 C 3.109375 16.832031 3.113281 16.785156 3.117188 16.742188 L 3.117188 13.480469 L 1.558594 13.480469 C 0.679688 13.480469 0 12.820312 0 11.976562 C 0 11.554688 0.144531 11.179688 0.488281 10.851562 L 12.949219 0.375 C 13.289062 0.046875 13.679688 0 14.019531 0 C 14.359375 0 14.75 0.09375 15.046875 0.328125 L 27.457031 10.851562 C 27.84375 11.179688 28.042969 11.554688 27.992188 11.976562 Z M 27.992188 11.976562 "/>
</g>
</svg>
